<svg xmlns="http://www.w3.org/2000/svg" width="1200" height="630" viewBox="0 0 1200 630" role="img" aria-label="Abstract real-time media and delayed playback architecture">
  <defs>
    <linearGradient id="bg" x1="0" y1="0" x2="1" y2="1"><stop stop-color="#020617"/><stop offset="1" stop-color="#172554"/></linearGradient>
    <linearGradient id="live" x1="0" y1="0" x2="1" y2="0"><stop stop-color="#22d3ee"/><stop offset="1" stop-color="#34d399"/></linearGradient>
    <linearGradient id="delayed" x1="0" y1="0" x2="1" y2="0"><stop stop-color="#a78bfa"/><stop offset="1" stop-color="#60a5fa"/></linearGradient>
    <pattern id="grid" width="40" height="40" patternUnits="userSpaceOnUse"><path d="M40 0H0V40" fill="none" stroke="#334155" stroke-width=".7" opacity=".45"/></pattern>
    <filter id="glow"><feGaussianBlur stdDeviation="8" result="blur"/><feMerge><feMergeNode in="blur"/><feMergeNode in="SourceGraphic"/></feMerge></filter>
  </defs>
  <rect width="1200" height="630" fill="url(#bg)"/>
  <rect width="1200" height="630" fill="url(#grid)" opacity=".7"/>
  <circle cx="175" cy="155" r="190" fill="#0891b2" opacity=".1"/><circle cx="1020" cy="480" r="220" fill="#7c3aed" opacity=".12"/>
  <g fill="none" stroke-linecap="round" stroke-linejoin="round">
    <path d="M278 294 C360 294 392 252 480 252" stroke="url(#live)" stroke-width="5" filter="url(#glow)"/>
    <path d="M720 252 C800 252 825 294 910 294" stroke="url(#live)" stroke-width="5" filter="url(#glow)"/>
    <path d="M278 374 C390 374 400 430 506 430" stroke="url(#delayed)" stroke-width="5" stroke-dasharray="10 12" filter="url(#glow)"/>
    <path d="M694 430 C798 430 812 374 910 374" stroke="url(#delayed)" stroke-width="5" stroke-dasharray="10 12" filter="url(#glow)"/>
  </g>
  <g>
    <rect x="100" y="220" width="180" height="230" rx="22" fill="#0f172a" stroke="#22d3ee" stroke-width="2"/>
    <circle cx="190" cy="285" r="31" fill="#083344" stroke="#22d3ee" stroke-width="3"/>
    <path d="M164 342c18-22 34 22 52 0M164 372c18-22 34 22 52 0M164 402c18-22 34 22 52 0" fill="none" stroke="#67e8f9" stroke-width="4" stroke-linecap="round"/>
    <rect x="480" y="174" width="240" height="156" rx="22" fill="#052e2b" stroke="#34d399" stroke-width="2"/>
    <circle cx="600" cy="252" r="39" fill="#064e3b" stroke="#6ee7b7" stroke-width="3"/>
    <circle cx="600" cy="252" r="11" fill="#a7f3d0"/><circle cx="546" cy="217" r="8" fill="#5eead4"/><circle cx="654" cy="217" r="8" fill="#5eead4"/><circle cx="546" cy="287" r="8" fill="#5eead4"/><circle cx="654" cy="287" r="8" fill="#5eead4"/>
    <path d="M554 222L588 246M646 222L612 246M554 282L588 258M646 282L612 258" stroke="#6ee7b7" stroke-width="3"/>
    <rect x="506" y="362" width="188" height="136" rx="22" fill="#2e1065" stroke="#a78bfa" stroke-width="2"/>
    <path d="M549 406h102M549 432h68M549 458h92" stroke="#c4b5fd" stroke-width="8" stroke-linecap="round"/>
    <circle cx="646" cy="450" r="27" fill="#312e81" stroke="#c4b5fd" stroke-width="3"/>
    <path d="M646 435v17l12 8" fill="none" stroke="#ddd6fe" stroke-width="3" stroke-linecap="round"/>
    <rect x="910" y="220" width="190" height="230" rx="22" fill="#0f172a" stroke="#60a5fa" stroke-width="2"/>
    <path d="M958 282l73 0 23 23v84l-23 23h-73l-23-23v-84z" fill="#172554" stroke="#93c5fd" stroke-width="3"/>
    <path d="M982 324l34 22-34 22z" fill="#bfdbfe"/>
  </g>
  <g fill="#e2e8f0" opacity=".9"><circle cx="337" cy="294" r="5"/><circle cx="396" cy="268" r="5"/><circle cx="780" cy="268" r="5"/><circle cx="842" cy="294" r="5"/><circle cx="350" cy="398" r="5"/><circle cx="418" cy="430" r="5"/><circle cx="782" cy="430" r="5"/><circle cx="846" cy="398" r="5"/></g>
</svg>
